<svg width="190" height="55" viewBox="0 0 190 55" fill="none" xmlns="http://www.w3.org/2000/svg">
<path d="M45.1942 35.6318C44.9076 35.9154 44.5637 36.1989 44.2771 36.4824C43.5319 37.1628 42.6721 37.1628 42.0416 36.4824C41.4111 35.8586 41.4111 34.9514 42.0416 34.271C42.8441 33.4772 43.6466 32.6834 44.449 31.8328C46.7991 29.5081 49.2066 27.1833 51.4993 24.8018C52.875 23.3843 52.875 21.0028 51.5566 19.5853C50.1237 18.0543 47.8309 17.8842 46.1686 19.1883C44.9076 20.209 43.9332 21.5131 42.7295 22.5904C41.4684 23.6111 40.3794 24.8585 39.233 25.9925C36.9975 28.2039 34.762 30.4153 32.5266 32.6267C30.635 34.4978 28.6862 36.4257 26.7946 38.2968C26.2214 38.8638 25.1897 38.8638 24.6165 38.3535C23.9287 37.7298 23.9287 36.8226 24.5019 36.1422C24.6165 36.0288 24.7311 35.8586 24.9031 35.7452C28.7435 32.0029 32.5266 28.2039 36.367 24.4049C36.7109 24.0647 36.9975 23.6678 37.2268 23.2709C38.0866 21.5131 37.5707 19.4719 36.1377 18.3945C34.3608 17.1471 32.412 17.3172 30.8643 18.8481C30.1765 19.4719 29.546 20.1523 28.8581 20.776C28.6862 20.9461 28.3996 21.1162 28.1703 21.1729C27.4252 21.343 26.7946 21.0028 26.4507 20.3224C26.1068 19.642 26.2788 18.9615 26.9093 18.3945C29.8899 15.446 32.8132 12.5542 35.7938 9.60575C37.3414 8.0748 37.3414 5.63663 35.7938 4.10568C34.3608 2.63144 31.7814 2.63144 30.2911 4.10568C28.5142 5.86344 26.7373 7.56449 24.9604 9.32224C21.7505 12.4975 18.598 15.6161 15.3881 18.7914C14.5856 19.5853 13.5539 19.642 12.9233 18.9615C12.2928 18.2811 12.3501 17.3739 13.1526 16.5801C14.5283 15.2192 15.9039 13.9151 17.2796 12.4975C18.8272 10.9099 18.7126 8.47172 17.1077 6.94077C15.56 5.52323 13.1526 5.57993 11.605 7.11088C8.45242 10.2295 5.29985 13.3481 2.14728 16.4667C0.313058 18.0543 0.255739 20.3224 1.86068 22.0234C3.29367 23.5544 5.81573 23.5544 7.42067 22.0801C7.76459 21.7399 8.1085 21.3997 8.45242 21.0595C9.31221 20.3224 10.5159 20.6626 10.9172 21.6832C11.2611 22.5337 10.8025 23.1575 10.2293 23.7245C7.30603 26.6163 4.2681 29.5648 1.28749 32.5699C-0.317456 34.1576 -0.432095 36.5391 1.00089 38.07C2.60584 39.7711 5.01325 39.8845 6.67552 38.2968C8.22314 36.8226 9.71345 35.3483 11.2038 33.8741C14.8149 30.3019 18.426 26.7297 22.0371 23.1008C22.725 22.4203 23.7567 22.3636 24.3872 22.9874C25.0177 23.6111 25.0177 24.6317 24.2726 25.3121C21.1773 28.374 18.0821 31.4359 14.9295 34.4978C12.3501 37.0494 9.77077 39.601 7.19139 42.1525C5.64377 43.6835 5.58645 45.8949 7.01943 47.5392C8.28046 49.0135 10.6306 49.297 12.2928 48.0495C12.9807 47.5392 13.6112 46.8588 14.2417 46.2351C16.1332 44.3639 18.0248 42.4928 19.9163 40.6216C20.8334 39.7144 22.2091 39.9412 22.6103 41.1319C22.8969 41.869 22.6103 42.3794 22.0944 42.8897C20.3175 44.6474 18.5406 46.4052 16.7637 48.2196C15.2161 49.7506 15.3308 52.132 16.9357 53.7197C18.3687 55.1372 20.7761 55.1939 22.3237 53.7764C23.0116 53.1527 23.6994 52.4723 24.3299 51.8485C28.6862 47.5392 33.0425 43.1732 37.4561 38.8638C38.0866 38.2401 39.061 38.2401 39.6915 38.7504C40.322 39.3175 40.3794 40.2247 39.8062 40.9051C39.5196 41.2453 39.1756 41.5288 38.8891 41.869C37.6853 43.1165 37.3414 44.6474 37.9719 46.1784C38.6025 47.6526 39.9781 48.5598 41.5831 48.5598C42.5002 48.5598 43.4173 48.333 44.1051 47.7093C46.3979 45.4979 48.6334 43.2866 50.8115 41.0185C52.3018 39.4309 52.1872 37.1061 50.6395 35.6318C49.1492 34.1009 46.7418 34.1576 45.1942 35.6318Z" fill="url(#paint0_linear_0_1)"/>
<path d="M42.2708 19.0519C44.5063 19.0519 46.2832 17.2941 46.2832 15.0828C46.2832 12.9848 44.5063 11.2271 42.3855 11.2271C40.2073 11.2271 38.4304 12.9848 38.4304 15.1395C38.4304 17.2374 40.15 18.9952 42.2708 19.0519Z" fill="#637EF9"/>
<path d="M22.2664 7.82484C24.5019 7.82484 26.2788 6.06709 26.2788 3.85572C26.2788 1.75775 24.5019 0 22.3811 0C20.2029 0 18.426 1.75775 18.426 3.91242C18.4833 6.06709 20.2029 7.82484 22.2664 7.82484Z" fill="#8568F1"/>
<path d="M55.4541 29.7119C53.2759 29.7119 51.499 31.4696 51.499 33.6243C51.499 35.7222 53.2186 37.48 55.3394 37.5367C57.5749 37.5367 59.3518 35.7789 59.3518 33.5676C59.3518 31.4696 57.5749 29.7119 55.4541 29.7119Z" fill="#637EF9"/>
<path d="M85.2471 26.5365C85.1325 27.0468 84.6739 27.4438 84.1007 27.4438H78.77C76.5346 27.4438 74.9869 27.1602 74.0125 26.6499C73.0954 26.1396 72.6368 25.119 72.6368 23.588C72.6368 22.9076 72.7515 22.1138 72.9234 21.1499L74.7003 12.0776H73.0381C72.2929 12.0776 71.777 11.4539 71.8917 10.7167L72.4076 7.99506C72.4649 7.82496 72.5222 7.65485 72.6368 7.54145L76.1906 2.83521C76.4199 2.5517 76.7638 2.38159 77.1078 2.38159H81.4067C82.1519 2.38159 82.6677 3.00531 82.5531 3.74243L81.7506 7.71155H86.6228C87.3679 7.71155 87.8838 8.33527 87.7692 9.07239L87.3679 11.1137C87.2533 11.624 86.7947 12.0209 86.2215 12.0209H80.8908L78.9993 21.6602C78.9993 21.7736 78.9993 21.887 78.9993 22.0004C78.9993 22.3406 79.2859 22.5107 79.9164 22.5107H84.5593C85.3044 22.5107 85.8203 23.1344 85.7057 23.8715L85.2471 26.5365Z" fill="white"/>
<path d="M117.862 26.5366C117.747 27.0469 117.289 27.4438 116.715 27.4438H101.182C98.5452 27.4438 96.711 27.0469 95.7365 26.2531C94.7621 25.4592 94.5328 23.9283 94.9341 21.6035L96.539 13.3818C96.9975 11.0003 97.8 9.41266 98.8318 8.67554C99.8635 7.93842 101.698 7.5415 104.22 7.5415H114.365C117.002 7.5415 118.836 7.93842 119.811 8.67554C120.785 9.46936 121.072 11.0003 120.613 13.2684L119.581 18.7684C119.467 19.2788 119.008 19.6757 118.435 19.6757H101.468L101.01 22.0571C100.953 22.3974 100.953 22.5675 101.067 22.6809C101.182 22.7943 101.468 22.851 101.812 22.851H117.174C117.919 22.851 118.435 23.4747 118.32 24.2118L117.862 26.5366ZM114.308 15.8767L114.881 12.7014C114.939 12.3611 114.939 12.1343 114.824 12.0776C114.709 11.9642 114.48 11.9642 114.079 11.9642H103.933C103.589 11.9642 103.303 12.0209 103.131 12.0776C102.959 12.191 102.844 12.3611 102.787 12.7014L102.214 15.8767H114.308Z" fill="white"/>
<path d="M151.279 26.5365C151.164 27.0468 150.705 27.4437 150.132 27.4437H135.458C133.223 27.4437 131.618 27.1602 130.644 26.6499C129.669 26.1395 129.153 25.1189 129.153 23.588C129.153 23.021 129.211 22.3405 129.383 21.5467L130.93 13.6652C131.389 11.2837 132.191 9.75275 133.28 8.95892C134.369 8.1651 136.204 7.76819 138.726 7.76819H153.056C153.801 7.76819 154.317 8.39191 154.202 9.12903L153.743 11.3971C153.629 11.9074 153.17 12.3043 152.597 12.3043H138.668C138.324 12.3043 138.038 12.361 137.866 12.4744C137.694 12.5878 137.579 12.8146 137.522 13.0982L135.745 21.8302C135.688 21.9436 135.688 22.057 135.688 22.1137C135.688 22.4539 135.974 22.624 136.548 22.624H150.591C151.336 22.624 151.852 23.2478 151.737 23.9849L151.279 26.5365Z" fill="white"/>
<path d="M185.499 27.4436H181.372C180.627 27.4436 180.111 26.8199 180.225 26.0828L182.805 13.0414C182.805 12.8713 182.862 12.7579 182.862 12.7012C182.862 12.4744 182.805 12.361 182.69 12.3043C182.576 12.2476 182.346 12.2476 182.06 12.2476H171.226L168.418 26.4797C168.303 26.99 167.844 27.3869 167.271 27.3869H163.144C162.399 27.3869 161.883 26.7632 161.998 26.0261L166.927 0.907228C167.042 0.396912 167.501 0 168.074 0H172.201C172.946 0 173.462 0.623719 173.347 1.36084L172.086 7.71144H183.263C185.442 7.71144 187.046 7.99494 188.021 8.50526C188.995 9.01558 189.454 10.0362 189.454 11.5105C189.454 12.1342 189.397 12.8146 189.225 13.6084L186.703 26.4797C186.531 27.0467 186.072 27.4436 185.499 27.4436Z" fill="white"/>
<path d="M81.6932 44.0572H74.1271L73.3246 48.1397C73.2673 48.5366 72.866 48.8202 72.4648 48.8202H70.2293C69.7135 48.8202 69.2549 48.3098 69.3696 47.7995L72.4075 32.4901C72.4648 32.0931 72.866 31.8096 73.2673 31.8096H83.986C85.3617 31.8096 86.3361 31.9797 86.9093 32.3199C87.4825 32.6602 87.7691 33.2839 87.7691 34.1911C87.7691 34.588 87.7118 34.9849 87.5971 35.4952L86.6227 40.3716C86.3361 41.8458 85.8202 42.8098 85.1324 43.3201C84.4446 43.7737 83.2982 44.0572 81.6932 44.0572ZM82.6677 40.5417L83.7567 35.155C83.7567 35.0983 83.7567 34.9849 83.7567 34.9849C83.7567 34.8715 83.6994 34.7581 83.6421 34.7581C83.5848 34.7014 83.4128 34.7014 83.2409 34.7014H76.0186L74.7576 41.1087H81.9798C82.2091 41.1087 82.3811 41.052 82.4384 40.9953C82.553 40.8819 82.6104 40.7118 82.6677 40.5417Z" fill="white"/>
<path d="M105.423 43.377C105.366 43.7739 104.964 44.0574 104.563 44.0574H95.0481C93.3858 44.0574 92.2967 43.8306 91.6662 43.3203C91.093 42.81 90.9211 41.8461 91.2077 40.4285L92.2394 35.3254C92.526 33.8511 92.9846 32.8872 93.6724 32.3769C94.3029 31.9233 95.4493 31.6965 96.9969 31.6965H103.302C104.964 31.6965 106.053 31.9233 106.684 32.4336C107.314 32.9439 107.486 33.8511 107.2 35.3254L106.569 38.6141C106.512 39.011 106.111 39.2945 105.71 39.2945H95.22L94.9334 40.7687C94.8761 40.9389 94.8761 41.109 94.9908 41.1657C95.0481 41.2224 95.22 41.2791 95.4493 41.2791H104.792C105.308 41.2791 105.767 41.7894 105.652 42.2997L105.423 43.377ZM103.187 36.8563L103.531 34.8718C103.589 34.645 103.589 34.5316 103.474 34.4749C103.417 34.4182 103.245 34.3615 103.015 34.3615H96.7103C96.4811 34.3615 96.3091 34.4182 96.1945 34.4749C96.0798 34.5316 96.0225 34.645 95.9652 34.8718L95.6213 36.8563H103.187Z" fill="white"/>
<path d="M122.218 44.1709H114.652C113.047 44.1709 111.9 43.944 111.327 43.4337C110.754 42.9234 110.582 41.9595 110.869 40.5419L111.9 35.3821C112.187 33.9078 112.645 32.9439 113.333 32.4336C113.964 31.98 115.053 31.6965 116.658 31.6965H124.224C125.829 31.6965 126.975 31.9233 127.549 32.4336C128.122 32.9439 128.294 33.9078 128.007 35.3254L126.975 40.4852C126.689 41.9595 126.23 42.9234 125.542 43.4337C124.855 43.944 123.765 44.1709 122.218 44.1709ZM122.906 40.6553L123.995 34.9852C124.052 34.7584 123.995 34.645 123.937 34.5883C123.88 34.5316 123.708 34.4749 123.479 34.4749H116.601C116.371 34.4749 116.199 34.5316 116.085 34.5883C115.97 34.645 115.913 34.7584 115.913 34.9852L114.824 40.6553C114.766 40.8254 114.766 40.9956 114.881 41.0523C114.938 41.109 115.11 41.1657 115.339 41.1657H122.218C122.447 41.1657 122.619 41.109 122.676 41.0523C122.791 40.9956 122.848 40.8254 122.906 40.6553Z" fill="white"/>
<path d="M142.566 44.0572H135L134.198 48.1397C134.14 48.5366 133.739 48.8202 133.338 48.8202H131.102C130.587 48.8202 130.128 48.3098 130.243 47.7995L133.281 32.4901C133.338 32.0931 133.739 31.8096 134.14 31.8096H144.859C146.235 31.8096 147.209 31.9797 147.782 32.3199C148.356 32.6602 148.642 33.2839 148.642 34.1911C148.642 34.588 148.585 34.9849 148.47 35.4952L147.496 40.3716C147.209 41.8458 146.693 42.8098 146.005 43.3201C145.318 43.7737 144.171 44.0572 142.566 44.0572ZM143.541 40.5417L144.63 35.155C144.63 35.0983 144.63 34.9849 144.63 34.9849C144.63 34.8715 144.572 34.7581 144.515 34.7581C144.458 34.7014 144.286 34.7014 144.114 34.7014H136.892L135.631 41.1087H142.853C143.082 41.1087 143.254 41.052 143.311 40.9953C143.426 40.8819 143.541 40.7118 143.541 40.5417Z" fill="white"/>
<path d="M159.705 43.3767C159.648 43.7736 159.247 44.0572 158.845 44.0572H155.979C154.604 44.0572 153.572 43.887 153.056 43.6035C152.483 43.32 152.196 42.753 152.196 41.8458C152.196 41.3922 152.254 40.9386 152.368 40.3715L154.833 27.7271C154.89 27.3301 155.292 27.0466 155.693 27.0466H157.928C158.444 27.0466 158.903 27.5569 158.788 28.0673L156.323 40.5416C156.323 40.5983 156.266 40.655 156.266 40.7117C156.266 40.9386 156.438 41.052 156.839 41.052H159.075C159.59 41.052 160.049 41.5623 159.934 42.0726L159.705 43.3767Z" fill="white"/>
<path d="M177.876 43.377C177.818 43.7739 177.417 44.0574 177.016 44.0574H167.501C165.838 44.0574 164.749 43.8306 164.119 43.3203C163.546 42.81 163.374 41.8461 163.66 40.4285L164.692 35.3254C164.979 33.8511 165.437 32.8872 166.125 32.3769C166.756 31.9233 167.902 31.6965 169.45 31.6965H175.755C177.417 31.6965 178.506 31.9233 179.137 32.4336C179.767 32.9439 179.939 33.8511 179.652 35.3254L179.022 38.6141C178.965 39.011 178.563 39.2945 178.162 39.2945H167.673L167.386 40.7687C167.329 40.9389 167.329 41.109 167.443 41.1657C167.501 41.2224 167.673 41.2791 167.902 41.2791H177.245C177.761 41.2791 178.219 41.7894 178.105 42.2997L177.876 43.377ZM175.64 36.8563L175.984 34.8718C176.041 34.645 176.041 34.5316 175.927 34.4749C175.869 34.4182 175.697 34.3615 175.468 34.3615H169.163C168.934 34.3615 168.762 34.4182 168.647 34.4749C168.532 34.5316 168.475 34.645 168.418 34.8718L168.074 36.8563H175.64Z" fill="white"/>
<defs>
<linearGradient id="paint0_linear_0_1" x1="0" y1="54.8116" x2="52.5454" y2="54.8116" gradientUnits="userSpaceOnUse">
<stop stop-color="#AF4DE7"/>
<stop offset="1" stop-color="#4E8BFE"/>
</linearGradient>
</defs>
</svg>
